<svg width="184" height="135" viewBox="0 0 184 135" fill="none" xmlns="http://www.w3.org/2000/svg">
<g opacity="0.8" clip-path="url(#clip0_2234_9590)">
<path d="M6.14308 40.7429C6.15733 42.215 5.0603 43.3297 3.58333 43.344C2.10635 43.3583 0.987935 42.265 0.973678 40.7929C0.959422 39.3209 2.05646 38.2061 3.53343 38.1918C5.0104 38.1775 6.13001 39.3935 6.14308 40.7429Z" fill="#FFCF2D"/>
<path d="M28.1743 40.53C28.1886 42.0021 27.0915 43.1168 25.6146 43.1312C24.1376 43.1455 23.0192 42.0521 23.0049 40.58C22.9907 39.108 24.0877 37.9932 25.5647 37.9789C26.9186 37.9658 28.1613 39.1806 28.1743 40.53Z" fill="#FFCF2D"/>
<path d="M50.0825 40.3181C50.0968 41.7901 48.9997 42.9049 47.5228 42.9192C46.0458 42.9335 44.9274 41.8402 44.9131 40.3681C44.8989 38.8961 45.9959 37.7813 47.4729 37.767C48.9498 37.7527 50.0695 38.9687 50.0825 40.3181Z" fill="#FFCF2D"/>
<path d="M72.1143 40.1042C72.1285 41.5763 71.0315 42.6911 69.5545 42.7054C68.0776 42.7197 66.9591 41.6263 66.9449 40.1543C66.9306 38.6822 68.0277 37.5674 69.5046 37.5531C70.9816 37.5388 72.1012 38.7548 72.1143 40.1042Z" fill="#FFCF2D"/>
<path d="M94.1455 39.8913C94.1598 41.3634 93.0627 42.4782 91.5858 42.4925C90.1088 42.5068 88.9904 41.4135 88.9761 39.9414C88.9619 38.4693 90.0589 37.3545 91.5359 37.3402C92.8898 37.3271 94.1324 38.5419 94.1455 39.8913Z" fill="#FFCF2D"/>
<path d="M116.177 39.6774C116.192 41.1495 115.094 42.2643 113.618 42.2786C112.141 42.2929 111.022 41.1996 111.008 39.7275C110.994 38.2554 112.091 37.1406 113.568 37.1263C115.045 37.112 116.164 38.328 116.177 39.6774Z" fill="#FFCF2D"/>
<path d="M138.085 39.4655C138.1 40.9376 137.003 42.0524 135.526 42.0667C134.049 42.081 132.93 40.9877 132.916 39.5156C132.902 38.0435 133.999 36.9287 135.476 36.9144C136.953 36.9001 138.072 38.1161 138.085 39.4655Z" fill="#FFCF2D"/>
<path d="M160.117 39.2526C160.131 40.7247 159.034 41.8395 157.557 41.8538C156.08 41.8681 154.962 40.7748 154.948 39.3027C154.934 37.8306 156.031 36.7158 157.508 36.7015C158.985 36.6872 160.104 37.9032 160.117 39.2526Z" fill="#FFCF2D"/>
<path d="M182.148 39.0388C182.163 40.5108 181.066 41.6256 179.589 41.6399C178.112 41.6542 176.993 40.5609 176.979 39.0888C176.965 37.6168 178.062 36.502 179.539 36.4877C180.893 36.4746 182.135 37.6894 182.148 39.0388Z" fill="#FFCF2D"/>
<path d="M6.31983 59.0212C6.33409 60.4933 5.23705 61.6081 3.76008 61.6224C2.28311 61.6367 1.16469 60.5433 1.15044 59.0713C1.13618 57.5992 2.23322 56.4844 3.71019 56.4701C5.18716 56.4558 6.30558 57.5491 6.31983 59.0212Z" fill="#FFCF2D"/>
<path d="M28.3516 58.8083C28.3658 60.2804 27.2688 61.3952 25.7918 61.4095C24.3149 61.4238 23.1964 60.3305 23.1822 58.8584C23.1679 57.3863 24.265 56.2715 25.7419 56.2572C27.0958 56.2441 28.3373 57.3362 28.3516 58.8083Z" fill="#FFCF2D"/>
<path d="M50.2598 58.5964C50.274 60.0685 49.177 61.1833 47.7 61.1976C46.2231 61.2119 45.1046 60.1185 45.0904 58.6465C45.0761 57.1744 46.1732 56.0596 47.6501 56.0453C49.1271 56.031 50.2455 57.1243 50.2598 58.5964Z" fill="#FFCF2D"/>
<path d="M72.291 58.3825C72.3053 59.8546 71.2082 60.9694 69.7313 60.9837C68.2543 60.998 67.1359 59.9047 67.1216 58.4326C67.1074 56.9605 68.2044 55.8457 69.6814 55.8314C71.1584 55.8171 72.2768 56.9104 72.291 58.3825Z" fill="#FFCF2D"/>
<path d="M94.3228 58.1696C94.337 59.6417 93.24 60.7565 91.763 60.7708C90.286 60.7851 89.1676 59.6918 89.1534 58.2197C89.1391 56.7476 90.2361 55.6328 91.7131 55.6185C93.067 55.6054 94.3085 56.6976 94.3228 58.1696Z" fill="#FFCF2D"/>
<path d="M116.355 57.9558C116.369 59.4278 115.272 60.5426 113.795 60.5569C112.318 60.5712 111.199 59.4779 111.185 58.0058C111.171 56.5338 112.268 55.419 113.745 55.4047C115.222 55.3904 116.34 56.4837 116.355 57.9558Z" fill="#FFCF2D"/>
<path d="M138.262 57.7439C138.276 59.2159 137.179 60.3307 135.702 60.345C134.225 60.3593 133.107 59.266 133.093 57.7939C133.079 56.3218 134.176 55.207 135.653 55.1927C137.13 55.1784 138.248 56.2718 138.262 57.7439Z" fill="#FFCF2D"/>
<path d="M160.294 57.53C160.308 59.0021 159.211 60.1169 157.734 60.1312C156.257 60.1455 155.139 59.0521 155.125 57.5801C155.11 56.108 156.207 54.9932 157.684 54.9789C159.161 54.9646 160.28 56.0579 160.294 57.53Z" fill="#FFCF2D"/>
<path d="M182.326 57.3171C182.34 58.7892 181.243 59.904 179.766 59.9183C178.289 59.9326 177.171 58.8392 177.156 57.3672C177.142 55.8951 178.239 54.7803 179.716 54.766C181.07 54.7529 182.311 55.845 182.326 57.3171Z" fill="#FFCF2D"/>
<path d="M5.79005 4.30928C5.80431 5.78136 4.70727 6.89615 3.2303 6.91045C1.75333 6.92476 0.634907 5.83142 0.620651 4.35934C0.606395 2.88726 1.70343 1.77248 3.1804 1.75817C4.65737 1.74387 5.77579 2.8372 5.79005 4.30928Z" fill="#FFCF2D"/>
<path d="M27.8218 4.09639C27.836 5.56847 26.739 6.68326 25.262 6.69756C23.7851 6.71186 22.6666 5.61853 22.6524 4.14645C22.6381 2.67437 23.7352 1.55958 25.2121 1.54528C26.566 1.53217 27.8075 2.62431 27.8218 4.09639Z" fill="#FFCF2D"/>
<path d="M49.7295 3.8835C49.7438 5.35558 48.6467 6.47037 47.1697 6.48467C45.6928 6.49897 44.5744 5.40564 44.5601 3.93356C44.5458 2.46148 45.766 1.3455 47.1199 1.33239C48.5968 1.31809 49.7152 2.41142 49.7295 3.8835Z" fill="#FFCF2D"/>
<path d="M71.7612 3.67061C71.7755 5.14269 70.6785 6.25748 69.2015 6.27178C67.7245 6.28608 66.6061 5.19275 66.5918 3.72067C66.5776 2.24859 67.7977 1.13261 69.1516 1.1195C70.5055 1.10639 71.747 2.19853 71.7612 3.67061Z" fill="#FFCF2D"/>
<path d="M93.793 3.45674C93.8072 4.92882 92.7102 6.04361 91.2332 6.05791C89.7563 6.07222 88.6378 4.97888 88.6236 3.5068C88.6093 2.03472 89.7064 0.919937 91.1833 0.905633C92.5372 0.892522 93.7787 1.98466 93.793 3.45674Z" fill="#FFCF2D"/>
<path d="M115.825 3.24385C115.839 4.71593 114.742 5.83072 113.265 5.84502C111.788 5.85933 110.67 4.76599 110.655 3.29391C110.641 1.82183 111.738 0.707046 113.215 0.692742C114.692 0.678439 115.81 1.77177 115.825 3.24385Z" fill="#FFCF2D"/>
<path d="M137.732 3.03194C137.747 4.50402 136.65 5.6188 135.173 5.63311C133.696 5.64741 132.577 4.55408 132.563 3.082C132.549 1.60992 133.646 0.495132 135.123 0.480828C136.6 0.466525 137.718 1.55986 137.732 3.03194Z" fill="#FFCF2D"/>
<path d="M159.764 2.81807C159.778 4.29015 158.681 5.40494 157.204 5.41924C155.727 5.43354 154.609 4.34021 154.595 2.86813C154.581 1.39605 155.678 0.281265 157.155 0.266961C158.631 0.252658 159.75 1.34599 159.764 2.81807Z" fill="#FFCF2D"/>
<path d="M181.796 2.60518C181.81 4.07726 180.713 5.19205 179.236 5.20635C177.759 5.22065 176.641 4.12732 176.627 2.65524C176.612 1.18316 177.709 0.068374 179.186 0.0540706C180.54 0.0409592 181.782 1.1331 181.796 2.60518Z" fill="#FFCF2D"/>
<path d="M5.9673 22.5876C5.98155 24.0597 4.88452 25.1745 3.40754 25.1888C1.93057 25.2031 0.810965 23.9871 0.797897 22.6377C0.783641 21.1656 1.88068 20.0508 3.35765 20.0365C4.83462 20.0222 5.95304 21.1155 5.9673 22.5876Z" fill="#FFCF2D"/>
<path d="M27.9985 22.3747C28.0128 23.8468 26.9158 24.9616 25.4388 24.9759C23.9618 24.9902 22.8434 23.8969 22.8291 22.4248C22.8149 20.9527 23.9119 19.8379 25.3889 19.8236C26.7428 19.8105 27.9843 20.9026 27.9985 22.3747Z" fill="#FFCF2D"/>
<path d="M49.9067 22.1618C49.921 23.6339 48.824 24.7487 47.347 24.763C45.87 24.7773 44.7516 23.684 44.7374 22.2119C44.7231 20.7398 45.8201 19.625 47.2971 19.6107C48.7741 19.5964 49.8925 20.6897 49.9067 22.1618Z" fill="#FFCF2D"/>
<path d="M71.9385 21.9489C71.9527 23.421 70.8557 24.5358 69.3787 24.5501C67.9018 24.5644 66.7833 23.4711 66.7691 21.999C66.7548 20.5269 67.8519 19.4121 69.3288 19.3978C70.8058 19.3835 71.9242 20.4768 71.9385 21.9489Z" fill="#FFCF2D"/>
<path d="M93.9697 21.7351C93.984 23.2071 92.887 24.3219 91.41 24.3362C89.933 24.3505 88.8146 23.2572 88.8003 21.7851C88.7861 20.313 89.8831 19.1983 91.3601 19.184C92.714 19.1708 93.9555 20.263 93.9697 21.7351Z" fill="#FFCF2D"/>
<path d="M116.001 21.5222C116.016 22.9943 114.919 24.109 113.442 24.1233C111.965 24.1376 110.846 23.0443 110.832 21.5722C110.818 20.1002 111.915 18.9854 113.392 18.9711C114.869 18.9568 115.987 20.0501 116.001 21.5222Z" fill="#FFCF2D"/>
<path d="M137.91 21.3103C137.924 22.7823 136.827 23.8971 135.35 23.9114C133.873 23.9257 132.755 22.8324 132.74 21.3603C132.726 19.8882 133.823 18.7735 135.3 18.7591C136.777 18.7448 137.895 19.8382 137.91 21.3103Z" fill="#FFCF2D"/>
<path d="M159.941 21.0964C159.955 22.5685 158.858 23.6833 157.381 23.6976C155.904 23.7119 154.786 22.6185 154.772 21.1465C154.757 19.6744 155.854 18.5596 157.331 18.5453C158.808 18.531 159.927 19.6243 159.941 21.0964Z" fill="#FFCF2D"/>
<path d="M181.973 20.8835C181.987 22.3556 180.89 23.4704 179.413 23.4847C177.936 23.499 176.818 22.4056 176.803 20.9336C176.789 19.4615 177.886 18.3467 179.363 18.3324C180.717 18.3193 181.958 19.4114 181.973 20.8835Z" fill="#FFCF2D"/>
<path d="M6.49562 77.1774C6.50987 78.6495 5.41284 79.7643 3.93586 79.7786C2.45889 79.7929 1.34047 78.6996 1.32622 77.2275C1.31196 75.7554 2.409 74.6406 3.88597 74.6263C5.36294 74.612 6.48255 75.828 6.49562 77.1774Z" fill="#FFCF2D"/>
<path d="M28.5274 76.9636C28.5416 78.4357 27.4446 79.5504 25.9676 79.5647C24.4906 79.579 23.3722 78.4857 23.358 77.0136C23.3437 75.5416 24.4407 74.4268 25.9177 74.4125C27.2716 74.3994 28.5143 75.6142 28.5274 76.9636Z" fill="#FFCF2D"/>
<path d="M50.4356 76.7517C50.4498 78.2237 49.3528 79.3385 47.8758 79.3528C46.3988 79.3671 45.2804 78.2738 45.2662 76.8017C45.2519 75.3296 46.3489 74.2149 47.8259 74.2006C49.3029 74.1863 50.4225 75.4023 50.4356 76.7517Z" fill="#FFCF2D"/>
<path d="M72.4668 76.5388C72.4811 78.0108 71.384 79.1256 69.9071 79.1399C68.4301 79.1542 67.3117 78.0609 67.2974 76.5888C67.2832 75.1168 68.3802 74.002 69.8572 73.9877C71.3341 73.9734 72.4537 75.1894 72.4668 76.5388Z" fill="#FFCF2D"/>
<path d="M94.4985 76.3249C94.5128 77.797 93.4158 78.9118 91.9388 78.9261C90.4618 78.9404 89.3434 77.847 89.3291 76.375C89.3149 74.9029 90.4119 73.7881 91.8889 73.7738C93.2428 73.7607 94.4855 74.9755 94.4985 76.3249Z" fill="#FFCF2D"/>
<path d="M116.53 76.112C116.545 77.5841 115.447 78.6989 113.971 78.7132C112.494 78.7275 111.375 77.6342 111.361 76.1621C111.347 74.69 112.444 73.5752 113.921 73.5609C115.398 73.5466 116.517 74.7626 116.53 76.112Z" fill="#FFCF2D"/>
<path d="M138.438 75.8991C138.452 77.3712 137.355 78.486 135.878 78.5003C134.401 78.5146 133.283 77.4213 133.269 75.9492C133.254 74.4771 134.351 73.3623 135.828 73.348C137.305 73.3337 138.425 74.5497 138.438 75.8991Z" fill="#FFCF2D"/>
<path d="M160.47 75.6862C160.484 77.1583 159.387 78.2731 157.91 78.2874C156.433 78.3017 155.315 77.2084 155.3 75.7363C155.286 74.2642 156.383 73.1494 157.86 73.1351C159.337 73.1208 160.457 74.3368 160.47 75.6862Z" fill="#FFCF2D"/>
<path d="M182.501 75.4733C182.516 76.9454 181.419 78.0602 179.942 78.0745C178.465 78.0888 177.346 76.9955 177.332 75.5234C177.318 74.0513 178.415 72.9365 179.892 72.9222C181.246 72.9091 182.488 74.1239 182.501 75.4733Z" fill="#FFCF2D"/>
<path d="M6.67286 95.4558C6.68712 96.9278 5.59008 98.0426 4.11311 98.0569C2.63614 98.0712 1.51772 96.9779 1.50346 95.5058C1.48921 94.0337 2.58624 92.919 4.06321 92.9047C5.54019 92.8904 6.65861 93.9837 6.67286 95.4558Z" fill="#FFCF2D"/>
<path d="M28.7041 95.2419C28.7184 96.714 27.6213 97.8288 26.1444 97.8431C24.6674 97.8574 23.549 96.764 23.5347 95.292C23.5205 93.8199 24.6175 92.7051 26.0945 92.6908C27.4484 92.6777 28.6899 93.7698 28.7041 95.2419Z" fill="#FFCF2D"/>
<path d="M50.6123 95.03C50.6266 96.5021 49.5295 97.6168 48.0526 97.6311C46.5756 97.6454 45.4572 96.5521 45.4429 95.08C45.4287 93.608 46.5257 92.4932 48.0027 92.4789C49.4796 92.4646 50.5981 93.5579 50.6123 95.03Z" fill="#FFCF2D"/>
<path d="M70.0843 97.4183C71.5118 97.4044 72.6578 96.2399 72.6441 94.8171C72.6303 93.3943 71.4619 92.2522 70.0344 92.266C68.6069 92.2798 67.4609 93.4444 67.4747 94.8672C67.4884 96.2899 68.6568 97.4321 70.0843 97.4183Z" fill="#FFCF2D"/>
<path d="M94.6758 94.6032C94.69 96.0753 93.593 97.1901 92.116 97.2044C90.6391 97.2187 89.5206 96.1254 89.5064 94.6533C89.4921 93.1812 90.5892 92.0664 92.0661 92.0521C93.42 92.039 94.6615 93.1311 94.6758 94.6032Z" fill="#FFCF2D"/>
<path d="M116.707 94.3903C116.721 95.8624 115.624 96.9772 114.147 96.9915C112.67 97.0058 111.552 95.9125 111.538 94.4404C111.523 92.9683 112.62 91.8535 114.097 91.8392C115.574 91.8249 116.693 92.9183 116.707 94.3903Z" fill="#FFCF2D"/>
<path d="M138.615 94.1774C138.63 95.6495 137.532 96.7643 136.056 96.7786C134.579 96.7929 133.46 95.6996 133.446 94.2275C133.432 92.7554 134.529 91.6406 136.006 91.6263C137.483 91.612 138.601 92.7054 138.615 94.1774Z" fill="#FFCF2D"/>
<path d="M158.087 96.5657C159.515 96.5519 160.661 95.3873 160.647 93.9645C160.633 92.5418 159.465 91.3996 158.037 91.4134C156.61 91.4273 155.464 92.5919 155.478 94.0146C155.491 95.4374 156.66 96.5795 158.087 96.5657Z" fill="#FFCF2D"/>
<path d="M182.678 93.7507C182.692 95.2228 181.595 96.3375 180.118 96.3518C178.642 96.3662 177.523 95.2728 177.509 93.8007C177.495 92.3287 178.592 91.2139 180.069 91.1996C181.422 91.1865 182.664 92.2786 182.678 93.7507Z" fill="#FFCF2D"/>
<path d="M6.84962 113.734C6.86388 115.206 5.76684 116.321 4.28987 116.335C2.8129 116.35 1.69448 115.256 1.68022 113.784C1.66597 112.312 2.763 111.197 4.23997 111.183C5.71694 111.169 6.83536 112.262 6.84962 113.734Z" fill="#FFCF2D"/>
<path d="M28.8814 113.52C28.8956 114.992 27.7986 116.107 26.3216 116.121C24.8446 116.136 23.7262 115.042 23.712 113.57C23.6977 112.098 24.7947 110.983 26.2717 110.969C27.6256 110.956 28.8671 112.048 28.8814 113.52Z" fill="#FFCF2D"/>
<path d="M50.7896 113.308C50.8038 114.78 49.7068 115.895 48.2298 115.909C46.7528 115.924 45.6344 114.83 45.6202 113.358C45.6059 111.886 46.7029 110.771 48.1799 110.757C49.6569 110.743 50.7753 111.836 50.7896 113.308Z" fill="#FFCF2D"/>
<path d="M72.8208 113.095C72.8351 114.568 71.738 115.682 70.2611 115.697C68.7841 115.711 67.6657 114.618 67.6514 113.145C67.6372 111.673 68.7342 110.559 70.2112 110.544C71.6881 110.53 72.8066 111.623 72.8208 113.095Z" fill="#FFCF2D"/>
<path d="M94.8525 112.882C94.8668 114.354 93.7698 115.468 92.2928 115.483C90.8158 115.497 89.6974 114.404 89.6832 112.932C89.6689 111.46 90.7659 110.345 92.2429 110.33C93.5968 110.317 94.8383 111.409 94.8525 112.882Z" fill="#FFCF2D"/>
<path d="M116.884 112.669C116.899 114.141 115.802 115.256 114.325 115.27C112.848 115.284 111.729 114.191 111.715 112.719C111.701 111.247 112.798 110.132 114.275 110.118C115.752 110.103 116.87 111.197 116.884 112.669Z" fill="#FFCF2D"/>
<path d="M138.792 112.456C138.807 113.928 137.71 115.043 136.233 115.057C134.756 115.071 133.637 113.978 133.623 112.506C133.609 111.034 134.706 109.919 136.183 109.905C137.66 109.89 138.778 110.984 138.792 112.456Z" fill="#FFCF2D"/>
<path d="M160.824 112.243C160.838 113.715 159.741 114.83 158.264 114.844C156.787 114.858 155.669 113.765 155.654 112.293C155.64 110.821 156.737 109.706 158.214 109.692C159.691 109.677 160.809 110.771 160.824 112.243Z" fill="#FFCF2D"/>
<path d="M182.855 112.029C182.87 113.501 181.773 114.616 180.296 114.63C178.819 114.644 177.7 113.551 177.686 112.079C177.672 110.607 178.769 109.492 180.246 109.478C181.6 109.465 182.841 110.557 182.855 112.029Z" fill="#FFCF2D"/>
<path d="M7.0254 131.889C7.03966 133.361 5.94262 134.476 4.46565 134.491C2.98868 134.505 1.87026 133.412 1.856 131.939C1.84175 130.467 2.93878 129.353 4.41575 129.338C5.89272 129.324 7.01233 130.54 7.0254 131.889Z" fill="#FFCF2D"/>
<path d="M29.0571 131.676C29.0714 133.149 27.9744 134.263 26.4974 134.278C25.0204 134.292 23.902 133.199 23.8877 131.727C23.8735 130.254 24.9705 129.14 26.4475 129.125C27.8014 129.112 29.0441 130.327 29.0571 131.676Z" fill="#FFCF2D"/>
<path d="M50.9653 131.464C50.9796 132.936 49.8826 134.05 48.4056 134.065C46.9286 134.079 45.8102 132.986 45.7959 131.514C45.7817 130.042 46.8787 128.927 48.3557 128.912C49.8327 128.898 50.9523 130.114 50.9653 131.464Z" fill="#FFCF2D"/>
<path d="M72.9971 131.251C73.0113 132.723 71.9143 133.838 70.4373 133.852C68.9604 133.866 67.8419 132.773 67.8277 131.301C67.8134 129.829 68.9105 128.714 70.3874 128.7C71.8644 128.685 72.984 129.901 72.9971 131.251Z" fill="#FFCF2D"/>
<path d="M95.0283 131.038C95.0426 132.51 93.9455 133.625 92.4686 133.639C90.9916 133.653 89.8732 132.56 89.8589 131.088C89.8447 129.616 90.9417 128.501 92.4187 128.487C93.7726 128.474 95.0153 129.688 95.0283 131.038Z" fill="#FFCF2D"/>
<path d="M117.06 130.824C117.074 132.296 115.977 133.411 114.5 133.425C113.023 133.439 111.905 132.346 111.891 130.874C111.876 129.402 112.973 128.287 114.45 128.273C115.927 128.259 117.047 129.475 117.06 130.824Z" fill="#FFCF2D"/>
<path d="M138.968 130.612C138.983 132.084 137.886 133.199 136.409 133.213C134.932 133.227 133.813 132.134 133.799 130.662C133.785 129.19 134.882 128.075 136.359 128.061C137.836 128.047 138.955 129.263 138.968 130.612Z" fill="#FFCF2D"/>
<path d="M161 130.398C161.014 131.87 159.917 132.985 158.44 132.999C156.963 133.014 155.844 131.92 155.83 130.448C155.816 128.976 156.913 127.861 158.39 127.847C159.867 127.833 160.986 129.049 161 130.398Z" fill="#FFCF2D"/>
<path d="M183.031 130.185C183.046 131.657 181.948 132.772 180.472 132.786C178.995 132.801 177.876 131.707 177.862 130.235C177.848 128.763 178.945 127.648 180.422 127.634C181.776 127.621 183.018 128.836 183.031 130.185Z" fill="#FFCF2D"/>
</g>
<defs>
<clipPath id="clip0_2234_9590">
<rect width="181.184" height="132.739" fill="white" transform="translate(0.595703 1.7832) rotate(-0.554851)"/>
</clipPath>
</defs>
</svg>
